<?xml version="1.0" encoding="UTF-8" standalone="no"?>
<!-- Created with Inkscape (http://www.inkscape.org/) -->

<svg
   version="1.1"
   id="svg1"
   width="658.34808"
   height="658.34808"
   viewBox="0 0 658.34806 658.34806"
   sodipodi:docname="Puzzler_Pride_logofinal.svg"
   inkscape:version="1.4 (e7c3feb100, 2024-10-09)"
   xmlns:inkscape="http://www.inkscape.org/namespaces/inkscape"
   xmlns:sodipodi="http://sodipodi.sourceforge.net/DTD/sodipodi-0.dtd"
   xmlns="http://www.w3.org/2000/svg"
   xmlns:svg="http://www.w3.org/2000/svg">
  <defs
     id="defs1" />
  <sodipodi:namedview
     id="namedview1"
     pagecolor="#ffffff"
     bordercolor="#000000"
     borderopacity="0.25"
     inkscape:showpageshadow="2"
     inkscape:pageopacity="0.0"
     inkscape:pagecheckerboard="0"
     inkscape:deskcolor="#d1d1d1"
     inkscape:zoom="0.51064565"
     inkscape:cx="329.97442"
     inkscape:cy="428.86883"
     inkscape:window-width="1920"
     inkscape:window-height="975"
     inkscape:window-x="0"
     inkscape:window-y="0"
     inkscape:window-maximized="1"
     inkscape:current-layer="g1">
    <inkscape:page
       x="0"
       y="0"
       inkscape:label="1"
       id="page1"
       width="658.34808"
       height="658.34808"
       margin="0"
       bleed="0" />
  </sodipodi:namedview>
  <g
     id="g1"
     inkscape:groupmode="layer"
     inkscape:label="1"
     transform="translate(-236.27238,-136.49105)">
    <g
       id="g27">
      <path
         id="path1"
         d="m -42.77534,192.49896 -24.66965,92.0679 c -0.20258,0.75611 0.24614,1.53324 1.00224,1.73581 l 95.8331,25.67853 c 0.7561,0.20256 1.53325,-0.24615 1.73581,-1.00226 L 55.7958,218.91106 c 0.20258,-0.75611 -0.24613,-1.53326 -1.00224,-1.73581 l -95.8331,-25.67853 c -0.7561,-0.20258 -1.53324,0.24614 -1.7358,1.00224 z"
         style="fill:#f94a4c;fill-opacity:1;fill-rule:nonzero;stroke:none"
         transform="matrix(1.3333333,0,0,-1.3333333,662.52133,562.74)" />
      <path
         id="path2"
         d="m -42.77539,192.49893 -20.60378,76.89429 c -0.20259,0.75608 0.24611,1.5332 1.0022,1.73578 l 95.83312,25.67853 c 0.7561,0.20256 1.53326,-0.24614 1.73585,-1.00223 l 20.60376,-76.89427 c 0.20259,-0.75609 -0.24609,-1.53323 -1.0022,-1.73578 l -95.8331,-25.67853 c -0.7561,-0.20258 -1.53327,0.24612 -1.73585,1.00221 z"
         style="fill:#ff9055;fill-opacity:1;fill-rule:nonzero;stroke:none"
         transform="matrix(1.3333333,0,0,-1.3333333,662.52133,562.74)" />
      <path
         id="path3"
         d="m -42.77534,192.49896 -16.53811,61.72055 c -0.20255,0.75611 0.24616,1.53325 1.00226,1.73581 l 95.8331,25.67853 c 0.75611,0.20256 1.53324,-0.24615 1.73581,-1.00226 L 55.7958,218.91106 c 0.20258,-0.75611 -0.24613,-1.53326 -1.00224,-1.73581 l -95.8331,-25.67853 c -0.7561,-0.20258 -1.53324,0.24614 -1.7358,1.00224 z"
         style="fill:#ffd078;fill-opacity:1;fill-rule:nonzero;stroke:none"
         transform="matrix(1.3333333,0,0,-1.3333333,662.52133,562.74)" />
      <path
         id="path4"
         d="m -42.77534,192.49896 -12.47233,46.54688 c -0.20256,0.7561 0.24616,1.53325 1.00227,1.73581 l 95.83309,25.67852 c 0.75611,0.20258 1.53325,-0.24613 1.73581,-1.00224 l 12.4723,-46.54687 c 0.20258,-0.75611 -0.24613,-1.53326 -1.00224,-1.73581 l -95.8331,-25.67853 c -0.7561,-0.20258 -1.53324,0.24614 -1.7358,1.00224 z"
         style="fill:#afd84a;fill-opacity:1;fill-rule:nonzero;stroke:none"
         transform="matrix(1.3333333,0,0,-1.3333333,662.52133,562.74)" />
      <path
         id="path5"
         d="m -42.77534,192.49896 -8.40654,31.37324 c -0.20258,0.75608 0.24613,1.53323 1.00224,1.73579 l 95.8331,25.67852 c 0.7561,0.20258 1.53324,-0.24614 1.73581,-1.00224 l 8.40653,-31.37321 c 0.20258,-0.75611 -0.24613,-1.53326 -1.00224,-1.73581 l -95.8331,-25.67853 c -0.7561,-0.20258 -1.53324,0.24614 -1.7358,1.00224 z"
         style="fill:#5e6ce6;fill-opacity:1;fill-rule:nonzero;stroke:none"
         transform="matrix(1.3333333,0,0,-1.3333333,662.52133,562.74)" />
      <path
         id="path6"
         d="m -42.77534,192.49896 -4.34078,16.19956 c -0.20258,0.7561 0.24616,1.53323 1.00224,1.73581 l 95.83312,25.67852 c 0.75609,0.20256 1.53323,-0.24615 1.73581,-1.00225 l 4.34075,-16.19954 c 0.20258,-0.75611 -0.24613,-1.53326 -1.00224,-1.73581 l -95.8331,-25.67853 c -0.7561,-0.20258 -1.53324,0.24614 -1.7358,1.00224 z"
         style="fill:#c35cf0;fill-opacity:1;fill-rule:nonzero;stroke:none"
         transform="matrix(1.3333333,0,0,-1.3333333,662.52133,562.74)" />
      <path
         id="path7"
         d="m -42.40857,191.12994 97.20213,26.04531 c 0.75611,0.20255 1.20482,0.9797 1.00224,1.73581 l -25.67852,95.8331 c -0.20256,0.7561 -0.97971,1.20481 -1.7358,1.00224 l -97.20214,-26.0453"
         style="fill:none;stroke:#3c000f;stroke-width:7.79535;stroke-linecap:round;stroke-linejoin:miter;stroke-miterlimit:10;stroke-dasharray:none;stroke-opacity:1"
         transform="matrix(1.3333333,0,0,-1.3333333,662.52133,562.74)" />
      <path
         id="path8"
         d="m -8.58154,-0.8321 -78.50301,292.97668 c -0.20257,0.7561 0.24614,1.53323 1.00225,1.73581 l 13.69148,3.66871 c 0.7561,0.20258 1.53323,-0.24615 1.73581,-1.00224 L 7.84798,3.57016 C 8.05055,2.81406 7.60184,2.03693 6.84573,1.83435 l -13.69146,-3.6687 c -0.75611,-0.20258 -1.53324,0.24614 -1.73581,1.00225 z"
         style="fill:#5f2530;fill-opacity:1;fill-rule:nonzero;stroke:#3c000f;stroke-width:7.79535;stroke-linecap:round;stroke-linejoin:miter;stroke-miterlimit:10;stroke-dasharray:none;stroke-opacity:1"
         transform="matrix(1.3333333,0,0,-1.3333333,662.52133,562.74)" />
      <path
         id="path9"
         d="m -288.99246,-67.59325 70.7418,122.52843 c 0.39138,0.67789 0.87286,0.61449 1.07541,-0.14162 l 25.67853,-95.8331 c 0.20258,-0.7561 -0.24614,-1.53324 -1.00224,-1.7358 l -95.83312,-25.67853 c -0.75609,-0.20258 -1.05175,0.18274 -0.66038,0.86062 z"
         style="fill:#ffd078;fill-opacity:1;fill-rule:nonzero;stroke:none"
         transform="matrix(1.3333333,0,0,-1.3333333,662.52133,562.74)" />
      <path
         id="path10"
         d="m -290.06787,-67.45163 -25.67853,95.83311 c -0.20257,0.75609 0.24614,1.53324 1.00224,1.7358 l 95.8331,25.67852 c 0.75611,0.20258 1.05178,-0.18273 0.6604,-0.86062 l -70.7418,-122.52843 c -0.39137,-0.67788 -0.87285,-0.61448 -1.07541,0.14162 z"
         style="fill:#f94a4c;fill-opacity:1;fill-rule:nonzero;stroke:none"
         transform="matrix(1.3333333,0,0,-1.3333333,662.52133,562.74)" />
      <path
         id="path11"
         d="m -191.12994,-42.40857 -26.04531,97.20213 c -0.20255,0.75611 -0.9797,1.20482 -1.73581,1.00224 l -95.8331,-25.67852 c -0.7561,-0.20256 -1.20481,-0.97971 -1.00224,-1.7358 l 26.0453,-97.20214"
         style="fill:none;stroke:#3c000f;stroke-width:7.79535;stroke-linecap:round;stroke-linejoin:miter;stroke-miterlimit:10;stroke-dasharray:none;stroke-opacity:1"
         transform="matrix(1.3333333,0,0,-1.3333333,662.52133,562.74)" />
      <path
         id="path12"
         d="m 0.8321,-8.58154 -292.97668,-78.50301 c -0.7561,-0.20257 -1.53323,0.24614 -1.73581,1.00225 l -3.66871,13.69148 c -0.20258,0.7561 0.24615,1.53323 1.00224,1.73581 L -3.57016,7.84798 c 0.7561,0.20257 1.53323,-0.24614 1.73581,-1.00225 L 1.83435,-6.84573 C 2.03693,-7.60184 1.58821,-8.37897 0.8321,-8.58154 Z"
         style="fill:#5f2530;fill-opacity:1;fill-rule:nonzero;stroke:#3c000f;stroke-width:7.79535;stroke-linecap:round;stroke-linejoin:miter;stroke-miterlimit:10;stroke-dasharray:none;stroke-opacity:1"
         transform="matrix(1.3333333,0,0,-1.3333333,662.52133,562.74)" />
      <path
         id="path13"
         d="m 167.21278,24.4013 -22.24839,13.38573 c -0.6707,0.40354 -0.90711,1.28583 -0.52803,1.97066 l 12.57481,22.71658 c 0.37907,0.68483 0.44871,1.82834 0.15556,2.55411 -11.02502,27.29352 -30.16989,52.23685 -53.67767,69.95145 -0.62514,0.47107 -1.74768,0.69981 -2.50729,0.51091 L 75.7852,129.22368 c -0.75961,-0.18891 -1.55063,0.26781 -1.7668,1.02009 l -7.17099,24.95437 c -0.21617,0.75228 -0.97551,1.61006 -1.69604,1.91587 -27.09522,11.5011 -58.2692,15.60935 -87.41855,11.51049 -0.77512,-0.10897 -1.73061,-0.74103 -2.13414,-1.41173 l -13.38571,-22.24838 c -0.40354,-0.6707 -1.28583,-0.90711 -1.97066,-0.52803 l -22.71658,12.57481 c -0.68483,0.37907 -1.82834,0.44871 -2.55411,0.15556 -27.29352,-11.02502 -52.23685,-30.16989 -69.95145,-53.67767 -0.47107,-0.62514 -0.69981,-1.74768 -0.51091,-2.50729 l 6.26706,-25.19657 c 0.18891,-0.75961 -0.26781,-1.55063 -1.02009,-1.7668 l -24.95437,-7.17099 c -0.75228,-0.21617 -1.61006,-0.97551 -1.91587,-1.69604 -11.5011,-27.09522 -15.60935,-58.2692 -11.51049,-87.41855 0.10897,-0.77512 0.74103,-1.73061 1.41173,-2.13414 l 22.24838,-13.38571 c 0.6707,-0.40354 0.90711,-1.28583 0.52803,-1.97066 l -12.57481,-22.71658 c -0.37907,-0.68483 -0.44871,-1.82834 -0.15556,-2.55411 11.02502,-27.29352 30.16989,-52.23685 53.67767,-69.95145 0.62514,-0.47107 1.74768,-0.69981 2.50729,-0.51091 l 25.19657,6.26706 c 0.75961,0.18891 1.55063,-0.26781 1.7668,-1.02009 l 7.17099,-24.95437 c 0.21617,-0.75228 0.97551,-1.61006 1.69604,-1.91587 27.09522,-11.5011 58.2692,-15.60935 87.41855,-11.51049 0.77512,0.10897 1.73061,0.74103 2.13414,1.41173 l 13.38571,22.24838 c 0.40354,0.6707 1.28583,0.90711 1.97066,0.52803 l 22.71658,-12.57481 c 0.68483,-0.37907 1.82834,-0.44871 2.55411,-0.15556 27.29352,11.02502 52.23685,30.16989 69.95145,53.67767 0.47107,0.62514 0.69981,1.74768 0.51091,2.50729 l -6.26706,25.19657 c -0.18891,0.75961 0.26781,1.55063 1.02009,1.7668 l 24.95437,7.17099 c 0.75228,0.21617 1.61006,0.97551 1.91587,1.69604 11.5011,27.09522 15.60935,58.2692 11.51049,87.41855 -0.10897,0.77512 -0.74103,1.73061 -1.41173,2.13414 l -22.24838,13.38571 c -0.6707,0.40354 -0.6707,0.40354 0,0 L 167.21278,24.4013 c 0.6707,-0.40353 0.6707,-0.40353 0,0 z"
         style="fill:#bf4c42;fill-opacity:1;fill-rule:nonzero;stroke:#3c000f;stroke-width:7.79535;stroke-linecap:round;stroke-linejoin:miter;stroke-miterlimit:10;stroke-dasharray:none;stroke-opacity:1"
         transform="matrix(1.3333333,0,0,-1.3333333,662.52133,562.74)" />
      <path
         id="path14"
         d="M 0,0 143.74997,38.5177"
         style="fill:none;stroke:#3c000f;stroke-width:7.79535;stroke-linecap:round;stroke-linejoin:miter;stroke-miterlimit:10;stroke-dasharray:none;stroke-opacity:1"
         transform="matrix(1.3333333,0,0,-1.3333333,662.52133,562.74)" />
      <path
         id="path15"
         d="M 0,0 74.40982,128.88164"
         style="fill:none;stroke:#3c000f;stroke-width:7.79535;stroke-linecap:round;stroke-linejoin:miter;stroke-miterlimit:10;stroke-dasharray:none;stroke-opacity:1"
         transform="matrix(1.3333333,0,0,-1.3333333,662.52133,562.74)" />
      <path
         id="path16"
         d="M 0,0 -38.5177,143.74997"
         style="fill:none;stroke:#3c000f;stroke-width:7.79535;stroke-linecap:round;stroke-linejoin:miter;stroke-miterlimit:10;stroke-dasharray:none;stroke-opacity:1"
         transform="matrix(1.3333333,0,0,-1.3333333,662.52133,562.74)" />
      <path
         id="path17"
         d="M 0,0 -128.88164,74.40982"
         style="fill:none;stroke:#3c000f;stroke-width:7.79535;stroke-linecap:round;stroke-linejoin:miter;stroke-miterlimit:10;stroke-dasharray:none;stroke-opacity:1"
         transform="matrix(1.3333333,0,0,-1.3333333,662.52133,562.74)" />
      <path
         id="path18"
         d="M 0,0 -143.74997,-38.5177"
         style="fill:none;stroke:#3c000f;stroke-width:7.79535;stroke-linecap:round;stroke-linejoin:miter;stroke-miterlimit:10;stroke-dasharray:none;stroke-opacity:1"
         transform="matrix(1.3333333,0,0,-1.3333333,662.52133,562.74)" />
      <path
         id="path19"
         d="M 0,0 -74.40982,-128.88164"
         style="fill:none;stroke:#3c000f;stroke-width:7.79535;stroke-linecap:round;stroke-linejoin:miter;stroke-miterlimit:10;stroke-dasharray:none;stroke-opacity:1"
         transform="matrix(1.3333333,0,0,-1.3333333,662.52133,562.74)" />
      <path
         id="path20"
         d="M 0,0 38.5177,-143.74997"
         style="fill:none;stroke:#3c000f;stroke-width:7.79535;stroke-linecap:round;stroke-linejoin:miter;stroke-miterlimit:10;stroke-dasharray:none;stroke-opacity:1"
         transform="matrix(1.3333333,0,0,-1.3333333,662.52133,562.74)" />
      <path
         id="path21"
         d="M 0,0 128.88164,-74.40982"
         style="fill:none;stroke:#3c000f;stroke-width:7.79535;stroke-linecap:round;stroke-linejoin:miter;stroke-miterlimit:10;stroke-dasharray:none;stroke-opacity:1"
         transform="matrix(1.3333333,0,0,-1.3333333,662.52133,562.74)" />
      <path
         id="path22"
         d="m 101.45111,28.22128 -41.81048,24.1393 c -0.67789,0.39137 -0.61449,0.87285 0.14161,1.07541 16.77741,4.49554 27.54602,23.14732 22.6837,41.29376 -4.86234,18.14644 -23.51411,28.91504 -41.66054,24.05272 -18.14643,-4.86232 -28.91505,-23.5141 -24.4195,-40.2915 0.20257,-0.75611 -0.18274,-1.05176 -0.86063,-0.66039 l -41.8105,24.1393 c -0.67789,0.39137 -1.54468,0.15912 -1.93605,-0.51877 l -24.1393,-41.81048 c -0.39137,-0.67789 -0.87285,-0.61449 -1.07541,0.14161 -4.49554,16.77741 -23.14732,27.54602 -41.29376,22.6837 -18.14644,-4.86234 -28.91504,-23.51411 -24.05272,-41.66054 4.86232,-18.14643 23.5141,-28.91505 40.2915,-24.4195 0.75611,0.20257 1.05176,-0.18274 0.66039,-0.86063 l -24.1393,-41.8105 c -0.39137,-0.67789 -0.15912,-1.54468 0.51877,-1.93605 l 127.73634,-73.7486 c 0.67789,-0.39137 1.54468,-0.15912 1.93605,0.51877 l 73.7486,127.73634 c 0.39137,0.67789 0.15912,1.54468 -0.51877,1.93605 z"
         style="fill:#ffd078;fill-opacity:1;fill-rule:nonzero;stroke:#3c000f;stroke-width:7.79535;stroke-linecap:round;stroke-linejoin:miter;stroke-miterlimit:10;stroke-dasharray:none;stroke-opacity:1"
         transform="matrix(1.3333333,0,0,-1.3333333,662.52133,562.74)" />
      <path
         id="path23"
         d="m 40.49745,32.8613 c -0.72934,2.72201 -3.52716,4.33732 -6.24916,3.60798 -2.72201,-0.72935 -4.33733,-3.52716 -3.60799,-6.24917 0.72936,-2.722 3.52717,-4.33733 6.24918,-3.60797 2.722,0.72934 4.33732,3.52716 3.60797,6.24916 z"
         style="fill:#3c000f;fill-opacity:1;fill-rule:nonzero;stroke:#3c000f;stroke-width:7.79535;stroke-linecap:round;stroke-linejoin:miter;stroke-miterlimit:10;stroke-dasharray:none;stroke-opacity:1"
         transform="matrix(1.3333333,0,0,-1.3333333,662.52133,562.74)" />
      <path
         id="path24"
         d="m -41.64532,10.85121 c -0.72934,2.722 -3.52717,4.33733 -6.24918,3.60797 -2.722,-0.72934 -4.33731,-3.52716 -3.60797,-6.24916 0.72934,-2.72202 3.52716,-4.33732 6.24917,-3.60798 2.722,0.72935 4.33731,3.52717 3.60798,6.24917 z"
         style="fill:#3c000f;fill-opacity:1;fill-rule:nonzero;stroke:#3c000f;stroke-width:7.79535;stroke-linecap:round;stroke-linejoin:miter;stroke-miterlimit:10;stroke-dasharray:none;stroke-opacity:1"
         transform="matrix(1.3333333,0,0,-1.3333333,662.52133,562.74)" />
      <path
         id="path25"
         d="m -13.153,5.28017 21.90372,5.86918 c 0.7561,0.20256 0.95019,-0.10986 0.43353,-0.69783 L 0.93549,1.0646 C 0.41884,0.47664 -0.60104,0.20335 -1.34248,0.45418 L -13.17955,4.4592 c -0.74142,0.25084 -0.72955,0.6184 0.02655,0.82097 z"
         style="fill:none;stroke:#3c000f;stroke-width:7.79535;stroke-linecap:round;stroke-linejoin:miter;stroke-miterlimit:10;stroke-dasharray:none;stroke-opacity:1"
         transform="matrix(1.3333333,0,0,-1.3333333,662.52133,562.74)" />
      <path
         id="path26"
         d="M 0,0 4.40193,-16.4283"
         style="fill:none;stroke:#3c000f;stroke-width:7.79535;stroke-linecap:round;stroke-linejoin:miter;stroke-miterlimit:10;stroke-dasharray:none;stroke-opacity:1"
         transform="matrix(1.3333333,0,0,-1.3333333,662.52133,562.74)" />
      <path
         id="path27"
         d="m -36.66945,-27.43335 c 23.83746,-6.81965 23.83746,-6.81965 40.08625,9.98615 0.54406,0.56272 1.59521,0.84439 2.34777,0.6291 22.47476,-6.42989 22.47476,-6.42989 39.70877,11.39485"
         style="fill:none;stroke:#3c000f;stroke-width:7.79535;stroke-linecap:round;stroke-linejoin:miter;stroke-miterlimit:10;stroke-dasharray:none;stroke-opacity:1"
         transform="matrix(1.3333333,0,0,-1.3333333,662.52133,562.74)" />
    </g>
  </g>
</svg>
